<?xml version="1.0" encoding="utf-8"?>
<!-- Generator: Adobe Illustrator 22.0.0, SVG Export Plug-In . SVG Version: 6.00 Build 0)  -->
<svg version="1.1" id="圖層_1" xmlns="http://www.w3.org/2000/svg" xmlns:xlink="http://www.w3.org/1999/xlink" x="0px" y="0px"
	 viewBox="0 0 109.5 99.7" style="enable-background:new 0 0 109.5 99.7;" xml:space="preserve">
<style type="text/css">
	.st0{fill:#FFFFFF;}
</style>
<g>
	<path class="st0" d="M98.9,32.9L93,27c-1.7,2.1-4.3,3.4-7.2,3.4c-5.2,0-9.5-4.3-9.5-9.5c0-2.9,1.3-5.5,3.4-7.2l-6.4-6.4
		c-3.5-3.5-9.3-3.5-12.8,0L15.2,52.3c-3.5,3.5-3.5,9.3,0,12.8l5.9,5.9c1.7-2.3,4.5-3.8,7.6-3.8c5.2,0,9.5,4.3,9.5,9.5
		c0,3.1-1.5,5.9-3.8,7.6l6.5,6.5c3.5,3.5,9.3,3.5,12.8,0l45.1-45.1C102.4,42.2,102.4,36.4,98.9,32.9z M83.8,44.1L52.6,75.2
		c-1.4,1.4-3.7,1.4-5.1,0L30.4,58.1c-1.4-1.4-1.4-3.7,0-5.1l31.2-31.2c1.4-1.4,3.7-1.4,5.1,0L83.8,39C85.2,40.4,85.2,42.7,83.8,44.1
		z"/>
	<path class="st0" d="M65.8,26.6c-1.2-1.2-3.1-1.2-4.3,0L34.5,53.5c-1.2,1.2-1.2,3.1,0,4.3l13.4,13.4c1.2,1.2,3.1,1.2,4.3,0
		l26.9-26.9c1.2-1.2,1.2-3.1,0-4.3L65.8,26.6z"/>
</g>
</svg>
