<?xml version="1.0" encoding="utf-8"?>
<!-- Generator: Adobe Illustrator 22.0.0, SVG Export Plug-In . SVG Version: 6.00 Build 0)  -->
<svg version="1.1" id="圖層_1" xmlns="http://www.w3.org/2000/svg" xmlns:xlink="http://www.w3.org/1999/xlink" x="0px" y="0px"
	 viewBox="0 0 300 300" style="enable-background:new 0 0 300 300;" xml:space="preserve">
<style type="text/css">
	.st0{fill:#FFFFFF;}
</style>
<path class="st0" d="M228,23H73c-27.5,0-50,22.5-50,50V228c0,27.5,22.5,50,50,50h84.6l-3.1-106.9l-23.9,0.7l-0.6-19.3l23.9-0.7
	l-0.2-6.6c-0.6-19.6,4.2-37.6,18.2-49.2c11.3-9.5,26.7-13.7,41.1-14.2c10.9-0.3,20.4,1.4,26.5,3.3l-3.6,19.7
	c-4.6-1.6-11-2.9-19.8-2.6c-26.3,0.8-32.5,20-31.8,41.2l0.2,7.5l41.1-1.2l0.6,19.3l-41.1,1.2l3.1,107.8H228c27.5,0,50-22.5,50-50V73
	C278,45.5,255.5,23,228,23z"/>
</svg>
